<svg xmlns="http://www.w3.org/2000/svg" width="18" height="16" viewBox="0 0 18 16">
  <g id="list" transform="translate(4 -4)">
    <path id="Path_3" data-name="Path 3" d="M7,6H23a1,1,0,0,0,0-2H7A1,1,0,0,0,7,6Z" transform="translate(-10)" fill="#fff"/>
    <path id="Path_4" data-name="Path 4" d="M23,11H7a1,1,0,0,0,0,2H23a1,1,0,0,0,0-2Z" transform="translate(-10)" fill="#fff"/>
    <path id="Path_5" data-name="Path 5" d="M23,18H7a1,1,0,0,0,0,2H23a1,1,0,0,0,0-2Z" transform="translate(-10)" fill="#fff"/>
  </g>
</svg>
